<?xml version="1.0" encoding="iso-8859-1"?>
<!-- Generator: Adobe Illustrator 19.0.0, SVG Export Plug-In . SVG Version: 6.00 Build 0)  -->
<svg version="1.1" id="Capa_1" xmlns="http://www.w3.org/2000/svg" xmlns:xlink="http://www.w3.org/1999/xlink" x="0px" y="0px"
	 viewBox="0 0 512 512" style="enable-background:new 0 0 512 512;" xml:space="preserve">
<path style="fill:#78B9EB;" d="M338.965,429.035c0,37.844-25.333,69.763-59.961,79.739C271.696,510.877,263.977,512,256,512
	c-45.821,0-82.965-37.143-82.965-82.965c0-34.103,20.581-63.383,49.985-76.132V32.999c0-22.304,22.082-38.566,43.626-31.207
	c12.955,4.452,22.333,16.789,22.333,31.207v319.904C318.383,365.652,338.965,394.932,338.965,429.035z"/>
<path style="fill:#B3D8F4;" d="M338.965,429.035c0,37.844-25.333,69.763-59.961,79.739c-43.575-2.504-78.142-38.628-78.142-82.831
	c0-34.103,20.581-63.383,49.985-76.132V29.908c0-11.766,6.295-22.308,15.799-28.115c12.955,4.452,22.333,16.789,22.333,31.207
	v319.904C318.383,365.652,338.965,394.932,338.965,429.035z"/>
<g>
	<path style="fill:#FF0C38;" d="M307.871,429.211c0,19.942-11.244,37.247-27.744,45.924c-7.204,3.803-15.418,5.947-24.127,5.947
		c-28.651,0-51.871-23.22-51.871-51.871c0-13.48,5.143-25.755,13.573-34.979c7.833-8.585,18.531-14.521,30.568-16.315V265.342
		c0-4.267,3.463-7.73,7.73-7.73c4.267,0,7.73,3.463,7.73,7.73v112.574C288.712,381.647,307.871,403.187,307.871,429.211z"/>
	<path style="fill:#FF0C38;" d="M266.822,52.695c0,4.267-3.453,7.73-7.73,7.73H223.02V44.965h36.072
		C263.369,44.965,266.822,48.417,266.822,52.695z"/>
	<path style="fill:#FF0C38;" d="M266.822,106.287c0,4.267-3.453,7.73-7.73,7.73H223.02V98.557h36.072
		C263.369,98.557,266.822,102.01,266.822,106.287z"/>
	<path style="fill:#FF0C38;" d="M266.822,159.879c0,4.267-3.453,7.73-7.73,7.73H223.02v-15.459h36.072
		C263.369,152.149,266.822,155.602,266.822,159.879z"/>
	<path style="fill:#FF0C38;" d="M266.822,213.471c0,4.267-3.453,7.73-7.73,7.73H223.02v-15.459h36.072
		C263.369,205.741,266.822,209.194,266.822,213.471z"/>
</g>
<path style="fill:#A5001E;" d="M280.127,475.135c-7.204,3.803-15.418,5.947-24.127,5.947c-28.651,0-51.871-23.22-51.871-51.871
	c0-13.48,5.143-25.755,13.573-34.979C224.37,430.097,248.085,459.974,280.127,475.135z"/>
<g>
	<path style="fill:#C70024;" d="M250.156,44.965H223.02v15.459h27.136c0.237,0,0.464-0.01,0.691-0.031V44.996
		C250.62,44.975,250.393,44.965,250.156,44.965z"/>
	<path style="fill:#C70024;" d="M223.02,98.557v15.459h27.136c0.237,0,0.464-0.01,0.691-0.031V98.588
		c-0.227-0.021-0.453-0.031-0.691-0.031H223.02z"/>
	<path style="fill:#C70024;" d="M223.02,152.149v15.459h27.136c0.237,0,0.464-0.01,0.691-0.031V152.18
		c-0.227-0.021-0.453-0.031-0.691-0.031H223.02z"/>
	<path style="fill:#C70024;" d="M223.02,205.741v15.459h27.136c0.237,0,0.464-0.01,0.691-0.031v-15.397
		c-0.227-0.021-0.453-0.031-0.691-0.031H223.02z"/>
</g>
<g>
</g>
<g>
</g>
<g>
</g>
<g>
</g>
<g>
</g>
<g>
</g>
<g>
</g>
<g>
</g>
<g>
</g>
<g>
</g>
<g>
</g>
<g>
</g>
<g>
</g>
<g>
</g>
<g>
</g>
</svg>
